<?xml version="1.0" encoding="utf-8"?>
<!-- Generator: Adobe Illustrator 25.4.1, SVG Export Plug-In . SVG Version: 6.00 Build 0)  -->
<svg version="1.1" id="maximize" xmlns="http://www.w3.org/2000/svg" xmlns:xlink="http://www.w3.org/1999/xlink" x="0px" y="0px"
	 viewBox="0 0 50 50" style="enable-background:new 0 0 50 50;" xml:space="preserve">
<style type="text/css">
	.st0{opacity:0.7;fill:#E8E8E8;}
</style>
<path class="st0" d="M39.6,9.7c-0.1-0.1-0.3-0.1-0.4-0.1H28.1c-0.6,0-1,0.4-1,1s0.4,1,1,1h8.7L21.7,26.8c-0.4,0.4-0.4,1,0,1.4
	s1,0.4,1.4,0l15.1-15.1v8.7c0,0.6,0.4,1,1,1s1-0.4,1-1V10.6C40.3,10.2,40,9.9,39.6,9.7z"/>
<path class="st0" d="M39.3,28c-0.6,0-1,0.4-1,1v10.7h-28v-28h10.7c0.6,0,1-0.4,1-1s-0.4-1-1-1H9.3c-0.6,0-1,0.4-1,1v30
	c0,0.6,0.4,1,1,1h30c0.6,0,1-0.4,1-1V29C40.3,28.4,39.8,28,39.3,28z"/>
</svg>
